<?xml version="1.0" encoding="UTF-8"?>
<svg id="Livello_1" xmlns="http://www.w3.org/2000/svg" version="1.1" viewBox="0 0 512 512">
  <!-- Generator: Adobe Illustrator 29.5.1, SVG Export Plug-In . SVG Version: 2.1.0 Build 141)  -->
  <defs>
    <style>
      .st0 {
        fill: #fff;
      }
    </style>
  </defs>
  <path class="st0" d="M499.1,6.3c8.1,6,12.9,15.6,12.9,25.7v336c0,44.2-43,80-96,80s-96-35.8-96-80,43-80,96-80c11.2,0,22,1.6,32,4.6v-145.6l-256,76.8v208.2c0,44.2-43,80-96,80S0,476.2,0,432s43-80,96-80c11.2,0,22,1.6,32,4.6v-228.6c0-14.1,9.3-26.6,22.8-30.7L470.8,1.3c9.7-2.9,20.2-1.1,28.3,5h0Z"/>
</svg>