<?xml version="1.0" encoding="UTF-8" standalone="no"?>
<!DOCTYPE svg PUBLIC "-//W3C//DTD SVG 1.1//EN" "http://www.w3.org/Graphics/SVG/1.1/DTD/svg11.dtd">
<svg width="100%" height="100%" viewBox="0 0 3544 3544" version="1.1" xmlns="http://www.w3.org/2000/svg" xmlns:xlink="http://www.w3.org/1999/xlink" xml:space="preserve" xmlns:serif="http://www.serif.com/" style="fill-rule:evenodd;clip-rule:evenodd;stroke-linejoin:round;stroke-miterlimit:2;">
    <g transform="matrix(1.14263,0,0,1.14263,-220.528,-425.06)">
        <path d="M1743.5,372C2599.24,372 3294,1066.76 3294,1922.5C3294,2778.24 2599.24,3473 1743.5,3473C887.756,3473 193,2778.24 193,1922.5C193,1066.76 887.756,372 1743.5,372ZM1743.5,386.586C895.806,386.586 207.586,1074.81 207.586,1922.5C207.586,2770.19 895.806,3458.41 1743.5,3458.41C2591.19,3458.41 3279.41,2770.19 3279.41,1922.5C3279.41,1074.81 2591.19,386.586 1743.5,386.586Z" style="fill:white;"/>
    </g>
    <g transform="matrix(0.266615,0,0,0.266615,1306.81,1259.09)">
        <path d="M1743.5,372C2599.24,372 3294,1066.76 3294,1922.5C3294,2778.24 2599.24,3473 1743.5,3473C887.756,3473 193,2778.24 193,1922.5C193,1066.76 887.756,372 1743.5,372ZM1743.5,434.512C922.257,434.512 255.512,1101.26 255.512,1922.5C255.512,2743.74 922.257,3410.49 1743.5,3410.49C2564.74,3410.49 3231.49,2743.74 3231.49,1922.5C3231.49,1101.26 2564.74,434.512 1743.5,434.512Z" style="fill:white;"/>
    </g>
</svg>
